<?xml version="1.0" encoding="UTF-8"?><svg id="Capa_1" xmlns="http://www.w3.org/2000/svg" viewBox="0 0 182.05 65.76"><defs><style>.cls-1{fill:#fff;}.cls-2{stroke:#656db1;}.cls-2,.cls-3{fill:none;stroke-miterlimit:10;stroke-width:3px;}.cls-3{stroke:#4b5da8;}</style></defs><g><path class="cls-1" d="m18.44,41.04c-.23-.44-.46-.88-.68-1.31v9.23h5.15c-1.55-2.6-3.03-5.25-4.47-7.92Z"/><path class="cls-1" d="m40.89,15.34v21.21c0,1.16.02,2.13.05,2.92s.08,1.41.14,1.86h-.09c-.16-.33-.36-.7-.62-1.12s-.55-.88-.88-1.38l-15.12-23.48h-6.61v10.06c1.63,3,2.74,6.43,4.17,9.33.43.87.89,1.73,1.34,2.59v-9.85c0-1.2-.02-2.22-.05-3.05s-.08-1.48-.14-1.95h.12c.14.33.33.7.56,1.1s.51.85.82,1.34l15.61,24.02h6.19V15.34h-5.48Z"/><path class="cls-1" d="m65.5,49.54c-3.86,0-6.91-1.15-9.16-3.46s-3.38-5.39-3.38-9.25c.02-4.09,1.18-7.29,3.5-9.6s5.48-3.46,9.48-3.46c3.84-.02,6.86,1.12,9.04,3.4s3.27,5.37,3.27,9.26-1.15,7.18-3.45,9.55-5.4,3.55-9.3,3.55Zm.26-4.43c2.22,0,3.91-.73,5.06-2.19s1.73-3.57,1.73-6.34-.58-4.79-1.75-6.22-2.86-2.14-5.07-2.14-3.93.75-5.19,2.26-1.89,3.6-1.89,6.27.62,4.73,1.86,6.19,2.99,2.18,5.24,2.18Z"/><path class="cls-1" d="m104.86,24.37l-8.18,12.19,8.06,12.4h-6.45l-4.24-7.36c-.14-.27-.3-.57-.48-.9s-.37-.71-.57-1.14h-.12c-.09.19-.22.45-.39.79-.16.34-.39.74-.67,1.21l-4.31,7.41h-6.42l8.34-12.14-7.92-12.45h6.47l4.2,7.73c.2.38.39.73.55,1.08s.32.68.46,1.01h.12c.16-.36.33-.71.53-1.05s.39-.7.57-1.05l4.34-7.71h6.12Z"/><path class="cls-1" d="m112.1,20.03c-1.02,0-1.86-.32-2.52-.96s-1-1.43-1-2.37c0-.98.33-1.79,1-2.41s1.5-.94,2.52-.94,1.86.31,2.53.94,1.01,1.43,1.01,2.41-.34,1.75-1.01,2.38-1.52.95-2.53.95Zm2.74,28.92h-5.58v-24.59h5.58v24.59Z"/><path class="cls-1" d="m144.14,48.95h-5.58v-3.84h-.12c-.86,1.47-1.93,2.57-3.2,3.32s-2.74,1.11-4.39,1.11c-2.88,0-5.04-.86-6.48-2.59s-2.17-4.33-2.17-7.82v-14.77h5.55v14.11c0,2.2.43,3.86,1.28,4.97s2.14,1.66,3.86,1.66,3.04-.61,4.09-1.82,1.58-2.82,1.58-4.82v-14.11h5.58v24.59Z"/><path class="cls-1" d="m149.34,47.03l2.44-3.94c.94.66,1.94,1.19,3.01,1.59s2.25.61,3.53.61c1.38,0,2.45-.25,3.21-.75s1.15-1.26,1.15-2.27c0-.81-.32-1.48-.97-2.02s-1.72-.98-3.22-1.34c-3.06-.72-5.21-1.67-6.43-2.86-1.23-1.19-1.84-2.75-1.84-4.69,0-2.23.88-4.06,2.64-5.47s4.03-2.12,6.81-2.12c1.38,0,2.69.18,3.94.53s2.46.91,3.63,1.68l-2.2,3.82c-1.05-.66-2-1.12-2.87-1.41s-1.76-.42-2.68-.42c-1.33,0-2.36.25-3.11.75s-1.11,1.2-1.11,2.09.36,1.56,1.07,2,1.95.88,3.71,1.3c2.67.64,4.63,1.56,5.87,2.77,1.24,1.2,1.86,2.82,1.86,4.85,0,2.36-.87,4.25-2.61,5.67s-4.09,2.13-7.04,2.13c-1.61,0-3.14-.21-4.59-.63s-2.84-1.05-4.17-1.88Z"/></g><path class="cls-2" d="m.93,13.35C7.35,8.26,17.18,2.45,29.53,1.61c7.7-.52,14.57,1.01,16.85,1.53,11.48,2.64,14.02,6.65,21.45,7.15,4.56.31,11.48-.68,20.43-7.66"/><path class="cls-3" d="m133.28,59.71c6.33,2.38,11.44,2.56,14.64,2.38,9.31-.52,17.02-4.43,17.02-4.43,3.52-1.78,6.03-3.73,10.21-3.74,2.66,0,4.84.77,6.26,1.43"/></svg>